<svg width="448" height="98" viewBox="0 0 448 98" fill="none" xmlns="http://www.w3.org/2000/svg">
<path d="M121.129 76.2224V53.5844H142.822V76.2224H152.751V22.6382H142.822V44.1329H121.129V22.6382H111.124V76.2224H121.129Z" fill="white"/>
<path d="M162.985 25.8395C162.985 27.5926 163.52 29.0409 164.666 30.1842C165.811 31.3275 167.339 31.9373 169.096 31.9373C171.005 31.9373 172.457 31.4038 173.602 30.2604C174.748 29.1171 175.359 27.6689 175.359 25.9158C175.359 24.1626 174.748 22.7144 173.602 21.5711C172.457 20.4277 171.005 19.8942 169.096 19.8942C167.186 19.8942 165.735 20.4277 164.589 21.5711C163.444 22.7144 162.833 24.1626 162.833 25.9158L162.985 25.8395ZM173.832 76.2987V37.654H164.284V76.2987H173.832Z" fill="white"/>
<path d="M182.954 77.9755C183.183 82.4727 185.169 86.2075 188.759 89.104C192.426 92.0004 197.009 93.4487 202.584 93.4487C208.619 93.4487 213.431 91.7718 216.944 88.418C220.458 85.0642 222.214 80.6433 222.214 75.0791V37.5778H213.201V42.6846C211.674 40.7029 209.841 39.1784 207.702 38.1113C205.563 37.0442 203.195 36.5106 200.598 36.5106C195.328 36.5106 190.974 38.34 187.614 41.9224C184.253 45.5049 182.572 50.0782 182.572 55.5662C182.572 61.0542 184.253 65.5513 187.614 69.0575C190.974 72.5638 195.252 74.3169 200.446 74.3169C203.043 74.3169 205.334 73.8595 207.32 72.8687C209.382 71.8778 211.215 70.5058 212.743 68.7527V75.9175C212.743 78.814 211.827 81.1007 209.993 82.8538C208.237 84.6069 205.716 85.4453 202.508 85.4453C199.529 85.4453 197.085 84.7593 195.252 83.3873C193.342 82.0153 192.426 80.186 192.349 77.8993L182.954 77.9755ZM192.502 55.4138C192.502 52.4411 193.495 50.002 195.405 47.944C197.314 45.9622 199.758 44.9713 202.737 44.9713C205.716 44.9713 208.16 45.9622 210.07 47.944C211.979 50.002 212.972 52.4411 212.972 55.4138C212.972 58.3864 211.979 60.8255 210.07 62.8835C208.16 64.8653 205.716 65.8562 202.737 65.8562C199.758 65.8562 197.314 64.8653 195.405 62.8835C193.495 60.8255 192.502 58.3102 192.502 55.3375V55.4138Z" fill="white"/>
<path d="M242.979 76.2224V54.1942C242.979 51.6026 243.743 49.4684 245.271 47.7915C246.799 46.1146 248.784 45.2762 251.305 45.2762C253.826 45.2762 255.735 46.0384 257.11 47.4866C258.485 48.9349 259.172 50.9166 259.172 53.432V76.1462H268.72V51.2215C268.72 46.8006 267.422 43.2182 264.825 40.5504C262.228 37.8826 258.79 36.5106 254.437 36.5106C252.145 36.5106 250.007 36.968 248.021 37.8826C246.035 38.7973 244.354 40.1693 243.056 41.9224V19.6655H233.508V76.1462L242.979 76.2224Z" fill="white"/>
<path d="M279.531 19.7417V76.2224H289.079V19.7417H279.531Z" fill="white"/>
<path d="M298.965 25.8395C298.965 27.5926 299.5 29.0409 300.646 30.1842C301.791 31.3275 303.319 31.9373 305.076 31.9373C306.985 31.9373 308.437 31.4038 309.582 30.2604C310.728 29.1171 311.339 27.6689 311.339 25.9158C311.339 24.1626 310.728 22.7144 309.582 21.5711C308.437 20.4277 306.985 19.8942 305.076 19.8942C303.166 19.8942 301.715 20.4277 300.569 21.5711C299.424 22.7144 298.813 24.1626 298.813 25.9158L298.965 25.8395ZM309.811 76.2987V37.654H300.264V76.2987H309.811Z" fill="white"/>
<path d="M318.934 77.9755C319.163 82.4727 321.149 86.2075 324.739 89.104C328.406 92.0004 332.988 93.4487 338.564 93.4487C344.598 93.4487 349.411 91.7718 352.924 88.418C356.438 85.0642 358.194 80.6433 358.194 75.0791V37.5778H349.181V42.6846C347.654 40.7029 345.821 39.1784 343.682 38.1113C341.543 37.0442 339.175 36.5106 336.578 36.5106C331.308 36.5106 326.954 38.34 323.594 41.9224C320.233 45.5049 318.552 50.0782 318.552 55.5662C318.552 61.0542 320.233 65.5513 323.594 69.0575C326.954 72.5638 331.232 74.3169 336.426 74.3169C339.023 74.3169 341.314 73.8595 343.3 72.8687C345.362 71.8778 347.195 70.5058 348.723 68.7527V75.9175C348.723 78.814 347.806 81.1007 345.973 82.8538C344.217 84.6069 341.696 85.4453 338.488 85.4453C335.509 85.4453 333.065 84.7593 331.232 83.3873C329.322 82.0153 328.406 80.186 328.329 77.8993L318.934 77.9755ZM328.482 55.4138C328.482 52.4411 329.475 50.002 331.384 47.944C333.294 45.9622 335.738 44.9713 338.717 44.9713C341.696 44.9713 344.14 45.9622 346.05 47.944C347.959 50.002 348.952 52.4411 348.952 55.4138C348.952 58.3864 347.959 60.8255 346.05 62.8835C344.14 64.8653 341.696 65.8562 338.717 65.8562C335.738 65.8562 333.294 64.8653 331.384 62.8835C329.475 60.8255 328.482 58.3102 328.482 55.3375V55.4138Z" fill="white"/>
<path d="M378.959 76.2224V54.1942C378.959 51.6026 379.723 49.4684 381.251 47.7915C382.778 46.1146 384.764 45.2762 387.285 45.2762C389.806 45.2762 391.715 46.0384 393.09 47.4866C394.465 48.9349 395.152 50.9166 395.152 53.432V76.1462H404.7V51.2215C404.7 46.8006 403.401 43.2182 400.805 40.5504C398.208 37.8826 394.77 36.5106 390.417 36.5106C388.125 36.5106 385.986 36.968 384.001 37.8826C382.015 38.7973 380.334 40.1693 379.036 41.9224V19.6655H369.488V76.1462L378.959 76.2224Z" fill="white"/>
<path d="M417.504 37.5778H411.317V46.1146H417.504V63.5695C417.504 68.1429 418.573 71.5729 420.712 73.8595C422.851 76.1462 426.059 77.2895 430.336 77.2895C431.787 77.2895 433.086 77.1371 434.308 76.8322C435.53 76.5273 436.752 76.1462 437.898 75.6127V67.2282C436.981 67.7618 436.065 68.1429 435.225 68.3715C434.308 68.6002 433.391 68.7527 432.475 68.7527C430.565 68.7527 429.19 68.2953 428.35 67.3807C427.51 66.3898 427.052 64.8653 427.052 62.8073V46.1146H436.599V37.5778H427.052V23.934L417.504 26.1444V37.5778Z" fill="white"/>
<ellipse cx="43.6466" cy="49" rx="38.1907" ry="38.1111" fill="url(#paint0_linear)"/>
<path d="M33.9819 32.2505L29.7986 32.2636C28.1317 32.2688 26.7847 33.6215 26.7899 35.2849L26.8754 62.5139C26.8807 64.1773 28.2362 65.5216 29.9031 65.5164L45.0779 65.4689L33.9819 32.2505Z" fill="white"/>
<path d="M53.241 65.4434L41.5909 32.2267L57.0845 32.1782C58.7514 32.173 60.1069 33.5173 60.1121 35.1807L60.1977 62.4097C60.2029 64.0731 58.8558 65.4258 57.189 65.431L53.241 65.4434Z" fill="white"/>
<defs>
<linearGradient id="paint0_linear" x1="43.6466" y1="10.8889" x2="43.6466" y2="87.1111" gradientUnits="userSpaceOnUse">
<stop stop-color="#5629C6"/>
<stop offset="1" stop-color="#321873"/>
</linearGradient>
</defs>
</svg>
